<?xml version="1.0" standalone="no"?>
<!DOCTYPE svg PUBLIC "-//W3C//DTD SVG 20010904//EN"
 "http://www.w3.org/TR/2001/REC-SVG-20010904/DTD/svg10.dtd">
<svg version="1.0" xmlns="http://www.w3.org/2000/svg"
 width="121.000000pt" height="121.000000pt" viewBox="0 0 121.000000 121.000000"
 preserveAspectRatio="xMidYMid meet">
<metadata>
Created by potrace 1.14, written by Peter Selinger 2001-2017
</metadata>
<g transform="translate(0.000000,121.000000) scale(0.100000,-0.100000)"
fill="#000000" stroke="none">
<path d="M56 875 c11 -45 14 -234 4 -285 -4 -25 -10 -58 -13 -75 -3 -16 -12
-50 -21 -75 -8 -24 -14 -45 -13 -46 1 -1 38 31 82 72 130 121 182 144 255 112
43 -19 88 -63 96 -95 4 -12 10 -23 15 -23 10 0 -15 85 -32 108 -55 70 -127
116 -170 107 -50 -11 -75 15 -189 195 l-22 35 8 -30z"/>
<path d="M633 848 c-24 -5 -43 -12 -43 -16 0 -4 21 -27 46 -52 80 -78 126
-197 128 -327 0 -29 4 -53 8 -53 5 0 9 3 9 8 1 4 3 16 5 27 2 11 6 36 8 55 3
19 5 37 6 40 7 22 -7 149 -22 205 -7 22 -12 42 -13 45 -1 3 -8 21 -17 41 -17
40 -36 44 -115 27z"/>
<path d="M779 829 c28 -30 68 -116 82 -176 11 -52 5 -196 -11 -237 -5 -14 -6
-26 -1 -26 10 0 51 78 56 107 2 10 4 18 6 18 3 0 7 35 12 91 3 30 -3 81 -14
124 -19 73 -38 106 -62 108 -6 0 -30 4 -51 8 l-40 7 23 -24z"/>
<path d="M503 806 c-18 -6 -33 -14 -33 -18 0 -4 -9 -8 -20 -8 -28 0 -25 -13 8
-27 83 -38 189 -198 195 -295 1 -21 7 -38 14 -38 17 0 9 152 -12 219 -15 50
-45 103 -77 141 -27 31 -42 36 -75 26z"/>
<path d="M934 778 c1 -7 5 -22 9 -33 27 -83 26 -193 -2 -260 -41 -98 -42 -109
-3 -89 15 7 32 14 39 14 7 0 29 9 48 20 124 70 152 128 99 206 -32 47 -63 75
-131 120 -58 38 -62 39 -59 22z m156 -189 c0 -29 -21 -43 -51 -34 -21 7 -26
54 -8 72 20 20 59 -6 59 -38z"/>
<path d="M351 720 l-45 -29 27 -10 c63 -24 197 -133 197 -160 0 -6 4 -11 9
-11 4 0 16 -21 26 -47 24 -63 31 -39 10 34 -25 88 -136 253 -169 253 -6 0 -31
-13 -55 -30z"/>
</g>
</svg>
