<svg id="svg" version="1.1" xmlns="http://www.w3.org/2000/svg" xmlns:xlink="http://www.w3.org/1999/xlink" width="400" height="244.62809917355372" viewBox="0, 0, 400,244.62809917355372"><g id="svgg"><path id="path0" d="M14.629 34.711 C 21.716 93.423,19.338 133.150,6.337 173.273 C -4.678 207.264,-0.845 206.957,37.015 170.821 C 73.464 136.031,83.210 130.574,103.477 133.613 C 121.640 136.337,140.786 151.559,143.904 165.756 C 147.050 180.080,155.372 177.876,155.372 162.719 C 155.372 149.058,150.579 140.334,132.720 121.488 C 110.232 97.757,129.103 109.268,154.777 134.942 C 175.972 156.137,181.182 163.422,183.708 175.394 C 185.821 185.413,188.687 190.360,192.842 191.160 C 203.178 193.151,196.954 158.382,182.294 132.231 C 175.669 120.413,169.698 109.256,169.025 107.438 C 168.353 105.620,161.721 97.810,154.287 90.083 C 139.707 74.926,141.348 71.440,157.399 83.471 C 185.467 104.510,209.710 145.874,213.585 179.339 C 214.937 191.013,217.359 198.347,219.863 198.347 C 225.112 198.347,229.389 150.976,225.386 137.190 C 223.801 131.736,223.056 125.678,223.729 123.728 C 228.294 110.504,191.363 54.212,176.775 52.159 C 167.741 50.887,138.871 63.511,138.855 68.740 C 138.849 71.092,136.983 72.654,134.711 72.209 C 132.438 71.765,122.408 76.512,112.422 82.758 C 102.436 89.005,91.651 93.672,88.455 93.131 C 85.259 92.589,82.645 93.728,82.645 95.660 C 82.645 101.983,74.461 99.361,61.910 89.016 C 55.132 83.429,49.545 76.362,49.495 73.313 C 49.444 70.264,44.981 61.925,39.577 54.783 C 34.173 47.641,29.752 40.090,29.752 38.004 C 29.752 35.917,25.900 30.604,21.193 26.196 L 12.634 18.182 14.629 34.711 M229.752 36.364 C 228.628 38.182,223.520 39.669,218.400 39.669 C 185.110 39.669,183.009 44.262,205.785 67.239 C 234.778 96.488,249.507 135.565,248.660 180.992 C 248.193 206.056,255.468 215.957,259.591 195.868 C 260.618 190.868,262.904 181.311,264.671 174.630 C 268.353 160.710,269.397 107.789,266.095 102.445 C 264.882 100.484,263.375 94.111,262.744 88.283 C 259.441 57.763,237.686 23.527,229.752 36.364 M251.240 40.866 C 251.240 45.255,256.125 56.078,262.095 64.918 C 281.170 93.161,289.227 137.109,281.101 168.595 C 273.427 198.332,274.388 206.120,284.668 197.521 C 318.330 169.365,314.771 51.943,280.030 44.463 C 274.195 43.207,265.331 40.088,260.331 37.533 C 251.641 33.093,251.240 33.240,251.240 40.866 M305.670 68.595 C 317.610 115.609,316.382 144.504,301.060 177.101 C 290.025 200.576,290.137 200.660,322.314 193.117 C 334.953 190.154,366.345 170.218,376.017 159.012 C 391.959 140.541,379.208 105.315,348.759 83.710 C 344.089 80.397,334.909 73.595,328.358 68.595 C 321.806 63.595,313.502 59.504,309.904 59.504 C 304.411 59.504,303.732 60.962,305.670 68.595 M358.101 123.656 C 360.612 130.199,348.062 141.119,343.395 136.453 C 338.285 131.343,343.155 119.008,350.282 119.008 C 353.602 119.008,357.120 121.100,358.101 123.656 " stroke="none" fill="#000000" fill-rule="evenodd"></path></g></svg>